<mxfile host="Electron" agent="Mozilla/5.0 (X11; Linux x86_64) AppleWebKit/537.36 (KHTML, like Gecko) draw.io/27.0.9 Chrome/134.0.6998.205 Electron/35.4.0 Safari/537.36" version="27.0.9" pages="4">
  <diagram name="config" id="ZvXNQg26AXPy_15aeXb5">
    <mxGraphModel dx="1426" dy="803" grid="1" gridSize="10" guides="1" tooltips="1" connect="1" arrows="1" fold="1" page="1" pageScale="1" pageWidth="827" pageHeight="1169" math="0" shadow="0">
      <root>
        <mxCell id="0" />
        <mxCell id="1" parent="0" />
        <mxCell id="JBnalLg52hrQvE5jIaXp-1" value="new&lt;div&gt;(empty)&lt;/div&gt;" style="rounded=1;whiteSpace=wrap;html=1;" parent="1" vertex="1">
          <mxGeometry x="90" y="60" width="120" height="60" as="geometry" />
        </mxCell>
        <mxCell id="JBnalLg52hrQvE5jIaXp-2" style="edgeStyle=orthogonalEdgeStyle;rounded=0;orthogonalLoop=1;jettySize=auto;html=1;entryX=0.5;entryY=0;entryDx=0;entryDy=0;" parent="1" source="JBnalLg52hrQvE5jIaXp-3" target="JBnalLg52hrQvE5jIaXp-4" edge="1">
          <mxGeometry relative="1" as="geometry" />
        </mxCell>
        <mxCell id="JBnalLg52hrQvE5jIaXp-3" value="ReadConfig" style="rounded=1;whiteSpace=wrap;html=1;" parent="1" vertex="1">
          <mxGeometry x="250" y="60" width="120" height="60" as="geometry" />
        </mxCell>
        <mxCell id="JBnalLg52hrQvE5jIaXp-4" value="readYML" style="rounded=1;whiteSpace=wrap;html=1;" parent="1" vertex="1">
          <mxGeometry x="250" y="170" width="120" height="60" as="geometry" />
        </mxCell>
        <mxCell id="JBnalLg52hrQvE5jIaXp-5" style="edgeStyle=orthogonalEdgeStyle;rounded=0;orthogonalLoop=1;jettySize=auto;html=1;" parent="1" source="JBnalLg52hrQvE5jIaXp-6" target="JBnalLg52hrQvE5jIaXp-8" edge="1">
          <mxGeometry relative="1" as="geometry" />
        </mxCell>
        <mxCell id="JBnalLg52hrQvE5jIaXp-6" value="Validate" style="rounded=1;whiteSpace=wrap;html=1;" parent="1" vertex="1">
          <mxGeometry x="414" y="60" width="120" height="60" as="geometry" />
        </mxCell>
        <mxCell id="JBnalLg52hrQvE5jIaXp-7" style="edgeStyle=orthogonalEdgeStyle;rounded=0;orthogonalLoop=1;jettySize=auto;html=1;" parent="1" source="JBnalLg52hrQvE5jIaXp-8" target="JBnalLg52hrQvE5jIaXp-10" edge="1">
          <mxGeometry relative="1" as="geometry" />
        </mxCell>
        <mxCell id="JBnalLg52hrQvE5jIaXp-8" value="validate required values&lt;br&gt;(with git-provider cases)" style="rounded=1;whiteSpace=wrap;html=1;" parent="1" vertex="1">
          <mxGeometry x="414" y="170" width="120" height="60" as="geometry" />
        </mxCell>
        <mxCell id="JBnalLg52hrQvE5jIaXp-9" style="edgeStyle=orthogonalEdgeStyle;rounded=0;orthogonalLoop=1;jettySize=auto;html=1;entryX=0.5;entryY=0;entryDx=0;entryDy=0;" parent="1" source="JBnalLg52hrQvE5jIaXp-10" target="JBnalLg52hrQvE5jIaXp-11" edge="1">
          <mxGeometry relative="1" as="geometry" />
        </mxCell>
        <mxCell id="JBnalLg52hrQvE5jIaXp-10" value="success" style="rhombus;whiteSpace=wrap;html=1;" parent="1" vertex="1">
          <mxGeometry x="434" y="270" width="80" height="80" as="geometry" />
        </mxCell>
        <mxCell id="JBnalLg52hrQvE5jIaXp-11" value="generate possible values" style="rounded=1;whiteSpace=wrap;html=1;" parent="1" vertex="1">
          <mxGeometry x="414" y="390" width="120" height="60" as="geometry" />
        </mxCell>
        <mxCell id="JBnalLg52hrQvE5jIaXp-12" value="yes" style="text;html=1;align=center;verticalAlign=middle;resizable=0;points=[];autosize=1;strokeColor=none;fillColor=none;" parent="1" vertex="1">
          <mxGeometry x="480" y="348" width="40" height="30" as="geometry" />
        </mxCell>
      </root>
    </mxGraphModel>
  </diagram>
  <diagram id="1KyT5Nvqu8-K1aTcOXnu" name="base_project_service">
    <mxGraphModel dx="1426" dy="803" grid="1" gridSize="10" guides="1" tooltips="1" connect="1" arrows="1" fold="1" page="1" pageScale="1" pageWidth="827" pageHeight="1169" math="0" shadow="0">
      <root>
        <mxCell id="0" />
        <mxCell id="1" parent="0" />
        <mxCell id="rozBYFYqCWglbYSsCx_b-8" style="edgeStyle=orthogonalEdgeStyle;rounded=0;orthogonalLoop=1;jettySize=auto;html=1;entryX=0;entryY=0.5;entryDx=0;entryDy=0;" parent="1" source="rozBYFYqCWglbYSsCx_b-1" target="rozBYFYqCWglbYSsCx_b-6" edge="1">
          <mxGeometry relative="1" as="geometry" />
        </mxCell>
        <mxCell id="rozBYFYqCWglbYSsCx_b-9" style="edgeStyle=orthogonalEdgeStyle;rounded=0;orthogonalLoop=1;jettySize=auto;html=1;entryX=0;entryY=0.5;entryDx=0;entryDy=0;" parent="1" source="rozBYFYqCWglbYSsCx_b-1" target="rozBYFYqCWglbYSsCx_b-7" edge="1">
          <mxGeometry relative="1" as="geometry" />
        </mxCell>
        <mxCell id="rozBYFYqCWglbYSsCx_b-1" value="Run" style="rounded=1;whiteSpace=wrap;html=1;" parent="1" vertex="1">
          <mxGeometry x="170" y="100" width="120" height="60" as="geometry" />
        </mxCell>
        <mxCell id="5e3Nrk3NoE4stqzlhXBE-3" style="edgeStyle=orthogonalEdgeStyle;rounded=0;orthogonalLoop=1;jettySize=auto;html=1;fillColor=#f8cecc;strokeColor=#b85450;exitX=0.5;exitY=1;exitDx=0;exitDy=0;entryX=0;entryY=0.5;entryDx=0;entryDy=0;" parent="1" source="rozBYFYqCWglbYSsCx_b-3" target="5e3Nrk3NoE4stqzlhXBE-1" edge="1">
          <mxGeometry relative="1" as="geometry" />
        </mxCell>
        <mxCell id="5e3Nrk3NoE4stqzlhXBE-6" style="edgeStyle=orthogonalEdgeStyle;rounded=0;orthogonalLoop=1;jettySize=auto;html=1;entryX=0;entryY=0.5;entryDx=0;entryDy=0;exitX=0.5;exitY=1;exitDx=0;exitDy=0;fillColor=#f8cecc;strokeColor=#b85450;" parent="1" source="rozBYFYqCWglbYSsCx_b-3" target="rozBYFYqCWglbYSsCx_b-1" edge="1">
          <mxGeometry relative="1" as="geometry" />
        </mxCell>
        <mxCell id="5e3Nrk3NoE4stqzlhXBE-8" style="edgeStyle=orthogonalEdgeStyle;rounded=0;orthogonalLoop=1;jettySize=auto;html=1;entryX=0;entryY=0.5;entryDx=0;entryDy=0;exitX=0.5;exitY=1;exitDx=0;exitDy=0;fillColor=#f8cecc;strokeColor=#b85450;" parent="1" source="rozBYFYqCWglbYSsCx_b-3" target="5e3Nrk3NoE4stqzlhXBE-7" edge="1">
          <mxGeometry relative="1" as="geometry" />
        </mxCell>
        <mxCell id="LCXMOYUyM2MM43qq6PIm-2" style="edgeStyle=orthogonalEdgeStyle;rounded=0;orthogonalLoop=1;jettySize=auto;html=1;entryX=0;entryY=0.5;entryDx=0;entryDy=0;exitX=0.5;exitY=1;exitDx=0;exitDy=0;fillColor=#f8cecc;strokeColor=#b85450;" edge="1" parent="1" source="rozBYFYqCWglbYSsCx_b-3" target="LCXMOYUyM2MM43qq6PIm-1">
          <mxGeometry relative="1" as="geometry" />
        </mxCell>
        <mxCell id="rozBYFYqCWglbYSsCx_b-3" value="" style="ellipse;html=1;shape=startState;fillColor=#000000;strokeColor=#ff0000;" parent="1" vertex="1">
          <mxGeometry x="110" y="40" width="30" height="30" as="geometry" />
        </mxCell>
        <mxCell id="rozBYFYqCWglbYSsCx_b-5" value="goboot" style="text;html=1;align=center;verticalAlign=middle;resizable=0;points=[];autosize=1;strokeColor=none;fillColor=none;" parent="1" vertex="1">
          <mxGeometry x="95" y="10" width="60" height="30" as="geometry" />
        </mxCell>
        <mxCell id="rozBYFYqCWglbYSsCx_b-6" value="createRootDir" style="rounded=1;whiteSpace=wrap;html=1;" parent="1" vertex="1">
          <mxGeometry x="335" y="100" width="120" height="60" as="geometry" />
        </mxCell>
        <mxCell id="bME0c1Y7AzzZ4_cLQwMC-1" style="edgeStyle=orthogonalEdgeStyle;rounded=0;orthogonalLoop=1;jettySize=auto;html=1;" edge="1" parent="1" source="rozBYFYqCWglbYSsCx_b-7" target="rozBYFYqCWglbYSsCx_b-16">
          <mxGeometry relative="1" as="geometry" />
        </mxCell>
        <mxCell id="rozBYFYqCWglbYSsCx_b-7" value="createNewProject" style="rounded=1;whiteSpace=wrap;html=1;" parent="1" vertex="1">
          <mxGeometry x="335" y="230" width="120" height="60" as="geometry" />
        </mxCell>
        <mxCell id="5e3Nrk3NoE4stqzlhXBE-5" style="edgeStyle=orthogonalEdgeStyle;rounded=0;orthogonalLoop=1;jettySize=auto;html=1;entryX=0;entryY=0.5;entryDx=0;entryDy=0;" parent="1" source="rozBYFYqCWglbYSsCx_b-10" target="rozBYFYqCWglbYSsCx_b-12" edge="1">
          <mxGeometry relative="1" as="geometry" />
        </mxCell>
        <mxCell id="rozBYFYqCWglbYSsCx_b-10" value="wrong&amp;nbsp;&lt;div&gt;conf type&lt;/div&gt;" style="rhombus;whiteSpace=wrap;html=1;" parent="1" vertex="1">
          <mxGeometry x="329" y="360" width="80" height="80" as="geometry" />
        </mxCell>
        <mxCell id="rozBYFYqCWglbYSsCx_b-12" value="" style="ellipse;html=1;shape=endState;fillColor=#000000;strokeColor=#ff0000;" parent="1" vertex="1">
          <mxGeometry x="440" y="385" width="30" height="30" as="geometry" />
        </mxCell>
        <mxCell id="rozBYFYqCWglbYSsCx_b-14" value="fail" style="text;html=1;align=center;verticalAlign=middle;resizable=0;points=[];autosize=1;strokeColor=none;fillColor=none;" parent="1" vertex="1">
          <mxGeometry x="470" y="385" width="40" height="30" as="geometry" />
        </mxCell>
        <mxCell id="rozBYFYqCWglbYSsCx_b-15" value="yes" style="text;html=1;align=center;verticalAlign=middle;resizable=0;points=[];autosize=1;strokeColor=none;fillColor=none;" parent="1" vertex="1">
          <mxGeometry x="400" y="370" width="40" height="30" as="geometry" />
        </mxCell>
        <mxCell id="rozBYFYqCWglbYSsCx_b-20" style="edgeStyle=orthogonalEdgeStyle;rounded=0;orthogonalLoop=1;jettySize=auto;html=1;entryX=0;entryY=0.5;entryDx=0;entryDy=0;" parent="1" source="rozBYFYqCWglbYSsCx_b-16" target="rozBYFYqCWglbYSsCx_b-17" edge="1">
          <mxGeometry relative="1" as="geometry" />
        </mxCell>
        <mxCell id="rozBYFYqCWglbYSsCx_b-16" value="walkAndApply" style="rounded=1;whiteSpace=wrap;html=1;" parent="1" vertex="1">
          <mxGeometry x="575" y="230" width="120" height="60" as="geometry" />
        </mxCell>
        <mxCell id="rozBYFYqCWglbYSsCx_b-21" style="edgeStyle=orthogonalEdgeStyle;rounded=0;orthogonalLoop=1;jettySize=auto;html=1;entryX=0;entryY=0.5;entryDx=0;entryDy=0;" parent="1" source="rozBYFYqCWglbYSsCx_b-17" target="rozBYFYqCWglbYSsCx_b-18" edge="1">
          <mxGeometry relative="1" as="geometry" />
        </mxCell>
        <mxCell id="rozBYFYqCWglbYSsCx_b-22" style="edgeStyle=orthogonalEdgeStyle;rounded=0;orthogonalLoop=1;jettySize=auto;html=1;entryX=0.5;entryY=0;entryDx=0;entryDy=0;" parent="1" source="rozBYFYqCWglbYSsCx_b-17" target="rozBYFYqCWglbYSsCx_b-19" edge="1">
          <mxGeometry relative="1" as="geometry" />
        </mxCell>
        <mxCell id="rozBYFYqCWglbYSsCx_b-17" value="is const&lt;div&gt;root&lt;/div&gt;" style="rhombus;whiteSpace=wrap;html=1;" parent="1" vertex="1">
          <mxGeometry x="745" y="220" width="80" height="80" as="geometry" />
        </mxCell>
        <mxCell id="rozBYFYqCWglbYSsCx_b-27" style="edgeStyle=orthogonalEdgeStyle;rounded=0;orthogonalLoop=1;jettySize=auto;html=1;entryX=0.5;entryY=0;entryDx=0;entryDy=0;exitX=1;exitY=0.5;exitDx=0;exitDy=0;" parent="1" source="rozBYFYqCWglbYSsCx_b-18" target="rozBYFYqCWglbYSsCx_b-25" edge="1">
          <mxGeometry relative="1" as="geometry" />
        </mxCell>
        <mxCell id="rozBYFYqCWglbYSsCx_b-28" style="edgeStyle=orthogonalEdgeStyle;rounded=0;orthogonalLoop=1;jettySize=auto;html=1;" parent="1" source="rozBYFYqCWglbYSsCx_b-18" target="rozBYFYqCWglbYSsCx_b-26" edge="1">
          <mxGeometry relative="1" as="geometry" />
        </mxCell>
        <mxCell id="rozBYFYqCWglbYSsCx_b-18" value="renderPath&lt;div&gt;(copy template files to target)&lt;/div&gt;" style="rounded=1;whiteSpace=wrap;html=1;" parent="1" vertex="1">
          <mxGeometry x="865" y="230" width="120" height="60" as="geometry" />
        </mxCell>
        <mxCell id="rozBYFYqCWglbYSsCx_b-29" style="edgeStyle=orthogonalEdgeStyle;rounded=0;orthogonalLoop=1;jettySize=auto;html=1;entryX=0;entryY=0.5;entryDx=0;entryDy=0;" parent="1" source="rozBYFYqCWglbYSsCx_b-19" target="rozBYFYqCWglbYSsCx_b-25" edge="1">
          <mxGeometry relative="1" as="geometry" />
        </mxCell>
        <mxCell id="rozBYFYqCWglbYSsCx_b-19" value="renderContent&lt;div&gt;(replaces template contents)&lt;/div&gt;" style="rounded=1;whiteSpace=wrap;html=1;" parent="1" vertex="1">
          <mxGeometry x="725" y="340" width="120" height="60" as="geometry" />
        </mxCell>
        <mxCell id="rozBYFYqCWglbYSsCx_b-23" value="no" style="text;html=1;align=center;verticalAlign=middle;resizable=0;points=[];autosize=1;strokeColor=none;fillColor=none;" parent="1" vertex="1">
          <mxGeometry x="785" y="298" width="40" height="30" as="geometry" />
        </mxCell>
        <mxCell id="rozBYFYqCWglbYSsCx_b-24" value="yes" style="text;html=1;align=center;verticalAlign=middle;resizable=0;points=[];autosize=1;strokeColor=none;fillColor=none;" parent="1" vertex="1">
          <mxGeometry x="805" y="228" width="40" height="30" as="geometry" />
        </mxCell>
        <mxCell id="rozBYFYqCWglbYSsCx_b-25" value="excecuteTemplate&lt;div&gt;(text/template)&lt;/div&gt;" style="rounded=1;whiteSpace=wrap;html=1;" parent="1" vertex="1">
          <mxGeometry x="985" y="340" width="120" height="60" as="geometry" />
        </mxCell>
        <mxCell id="rozBYFYqCWglbYSsCx_b-26" value="utils.EnsureDir" style="rounded=1;whiteSpace=wrap;html=1;" parent="1" vertex="1">
          <mxGeometry x="1095" y="230" width="120" height="60" as="geometry" />
        </mxCell>
        <mxCell id="5e3Nrk3NoE4stqzlhXBE-4" style="edgeStyle=orthogonalEdgeStyle;rounded=0;orthogonalLoop=1;jettySize=auto;html=1;" parent="1" source="5e3Nrk3NoE4stqzlhXBE-1" target="rozBYFYqCWglbYSsCx_b-10" edge="1">
          <mxGeometry relative="1" as="geometry" />
        </mxCell>
        <mxCell id="5e3Nrk3NoE4stqzlhXBE-1" value="SetConfig" style="rounded=1;whiteSpace=wrap;html=1;" parent="1" vertex="1">
          <mxGeometry x="170" y="370" width="120" height="60" as="geometry" />
        </mxCell>
        <mxCell id="5e3Nrk3NoE4stqzlhXBE-7" value="ID" style="rounded=1;whiteSpace=wrap;html=1;" parent="1" vertex="1">
          <mxGeometry x="170" y="460" width="120" height="60" as="geometry" />
        </mxCell>
        <mxCell id="LCXMOYUyM2MM43qq6PIm-1" value="New" style="rounded=1;whiteSpace=wrap;html=1;" vertex="1" parent="1">
          <mxGeometry x="170" y="550" width="120" height="60" as="geometry" />
        </mxCell>
        <mxCell id="bME0c1Y7AzzZ4_cLQwMC-2" value="path then content" style="text;html=1;align=center;verticalAlign=middle;resizable=0;points=[];autosize=1;strokeColor=none;fillColor=none;" vertex="1" parent="1">
          <mxGeometry x="455" y="230" width="120" height="30" as="geometry" />
        </mxCell>
      </root>
    </mxGraphModel>
  </diagram>
  <diagram id="PKraOtaFwqJUZtODfm48" name="base_lint_service">
    <mxGraphModel dx="1426" dy="803" grid="1" gridSize="10" guides="1" tooltips="1" connect="1" arrows="1" fold="1" page="1" pageScale="1" pageWidth="827" pageHeight="1169" math="0" shadow="0">
      <root>
        <mxCell id="0" />
        <mxCell id="1" parent="0" />
        <mxCell id="ccZ6gFLDCnIG3P1cBJz6-1" style="edgeStyle=orthogonalEdgeStyle;rounded=0;orthogonalLoop=1;jettySize=auto;html=1;entryX=0;entryY=0.5;entryDx=0;entryDy=0;" edge="1" parent="1" source="ccZ6gFLDCnIG3P1cBJz6-3" target="ccZ6gFLDCnIG3P1cBJz6-9">
          <mxGeometry relative="1" as="geometry" />
        </mxCell>
        <mxCell id="ccZ6gFLDCnIG3P1cBJz6-2" style="edgeStyle=orthogonalEdgeStyle;rounded=0;orthogonalLoop=1;jettySize=auto;html=1;entryX=0;entryY=0.5;entryDx=0;entryDy=0;" edge="1" parent="1" source="ccZ6gFLDCnIG3P1cBJz6-3" target="ccZ6gFLDCnIG3P1cBJz6-10">
          <mxGeometry relative="1" as="geometry" />
        </mxCell>
        <mxCell id="ccZ6gFLDCnIG3P1cBJz6-3" value="Run" style="rounded=1;whiteSpace=wrap;html=1;" vertex="1" parent="1">
          <mxGeometry x="105" y="100" width="120" height="60" as="geometry" />
        </mxCell>
        <mxCell id="ccZ6gFLDCnIG3P1cBJz6-4" style="edgeStyle=orthogonalEdgeStyle;rounded=0;orthogonalLoop=1;jettySize=auto;html=1;fillColor=#f8cecc;strokeColor=#b85450;exitX=0.5;exitY=1;exitDx=0;exitDy=0;entryX=0;entryY=0.5;entryDx=0;entryDy=0;" edge="1" parent="1" source="ccZ6gFLDCnIG3P1cBJz6-7" target="ccZ6gFLDCnIG3P1cBJz6-31">
          <mxGeometry relative="1" as="geometry" />
        </mxCell>
        <mxCell id="ccZ6gFLDCnIG3P1cBJz6-5" style="edgeStyle=orthogonalEdgeStyle;rounded=0;orthogonalLoop=1;jettySize=auto;html=1;entryX=0;entryY=0.5;entryDx=0;entryDy=0;exitX=0.5;exitY=1;exitDx=0;exitDy=0;fillColor=#f8cecc;strokeColor=#b85450;" edge="1" parent="1" source="ccZ6gFLDCnIG3P1cBJz6-7" target="ccZ6gFLDCnIG3P1cBJz6-3">
          <mxGeometry relative="1" as="geometry" />
        </mxCell>
        <mxCell id="ccZ6gFLDCnIG3P1cBJz6-6" style="edgeStyle=orthogonalEdgeStyle;rounded=0;orthogonalLoop=1;jettySize=auto;html=1;entryX=0;entryY=0.5;entryDx=0;entryDy=0;exitX=0.5;exitY=1;exitDx=0;exitDy=0;fillColor=#f8cecc;strokeColor=#b85450;" edge="1" parent="1" source="ccZ6gFLDCnIG3P1cBJz6-7" target="ccZ6gFLDCnIG3P1cBJz6-32">
          <mxGeometry relative="1" as="geometry" />
        </mxCell>
        <mxCell id="48FFa_vevC7LE3hxK36y-2" style="edgeStyle=orthogonalEdgeStyle;rounded=0;orthogonalLoop=1;jettySize=auto;html=1;entryX=0;entryY=0.5;entryDx=0;entryDy=0;exitX=0.5;exitY=1;exitDx=0;exitDy=0;fillColor=#f8cecc;strokeColor=#b85450;" edge="1" parent="1" source="ccZ6gFLDCnIG3P1cBJz6-7" target="48FFa_vevC7LE3hxK36y-1">
          <mxGeometry relative="1" as="geometry" />
        </mxCell>
        <mxCell id="Z3VJq1caZxiKz2fVmagf-3" style="edgeStyle=orthogonalEdgeStyle;rounded=0;orthogonalLoop=1;jettySize=auto;html=1;entryX=0;entryY=0.5;entryDx=0;entryDy=0;exitX=0.5;exitY=1;exitDx=0;exitDy=0;fillColor=#f8cecc;strokeColor=#b85450;" edge="1" parent="1" source="ccZ6gFLDCnIG3P1cBJz6-7" target="Z3VJq1caZxiKz2fVmagf-1">
          <mxGeometry relative="1" as="geometry" />
        </mxCell>
        <mxCell id="ccZ6gFLDCnIG3P1cBJz6-7" value="" style="ellipse;html=1;shape=startState;fillColor=#000000;strokeColor=#ff0000;" vertex="1" parent="1">
          <mxGeometry x="45" y="40" width="30" height="30" as="geometry" />
        </mxCell>
        <mxCell id="ccZ6gFLDCnIG3P1cBJz6-8" value="goboot" style="text;html=1;align=center;verticalAlign=middle;resizable=0;points=[];autosize=1;strokeColor=none;fillColor=none;" vertex="1" parent="1">
          <mxGeometry x="30" y="10" width="60" height="30" as="geometry" />
        </mxCell>
        <mxCell id="ccZ6gFLDCnIG3P1cBJz6-9" value="createRootDir" style="rounded=1;whiteSpace=wrap;html=1;" vertex="1" parent="1">
          <mxGeometry x="270" y="100" width="120" height="60" as="geometry" />
        </mxCell>
        <mxCell id="oyLnVq_SlslrgprhnnTs-7" style="edgeStyle=orthogonalEdgeStyle;rounded=0;orthogonalLoop=1;jettySize=auto;html=1;" edge="1" parent="1" source="ccZ6gFLDCnIG3P1cBJz6-10" target="Z3VJq1caZxiKz2fVmagf-4">
          <mxGeometry relative="1" as="geometry" />
        </mxCell>
        <mxCell id="oyLnVq_SlslrgprhnnTs-8" style="edgeStyle=orthogonalEdgeStyle;rounded=0;orthogonalLoop=1;jettySize=auto;html=1;entryX=0;entryY=0.5;entryDx=0;entryDy=0;" edge="1" parent="1" source="ccZ6gFLDCnIG3P1cBJz6-10" target="Z3VJq1caZxiKz2fVmagf-5">
          <mxGeometry relative="1" as="geometry" />
        </mxCell>
        <mxCell id="ccZ6gFLDCnIG3P1cBJz6-10" value="copyFiles" style="rounded=1;whiteSpace=wrap;html=1;" vertex="1" parent="1">
          <mxGeometry x="270" y="230" width="120" height="60" as="geometry" />
        </mxCell>
        <mxCell id="ccZ6gFLDCnIG3P1cBJz6-11" style="edgeStyle=orthogonalEdgeStyle;rounded=0;orthogonalLoop=1;jettySize=auto;html=1;entryX=0;entryY=0.5;entryDx=0;entryDy=0;" edge="1" parent="1" source="ccZ6gFLDCnIG3P1cBJz6-12" target="ccZ6gFLDCnIG3P1cBJz6-13">
          <mxGeometry relative="1" as="geometry" />
        </mxCell>
        <mxCell id="ccZ6gFLDCnIG3P1cBJz6-12" value="wrong&amp;nbsp;&lt;div&gt;conf type&lt;/div&gt;" style="rhombus;whiteSpace=wrap;html=1;" vertex="1" parent="1">
          <mxGeometry x="264" y="360" width="80" height="80" as="geometry" />
        </mxCell>
        <mxCell id="ccZ6gFLDCnIG3P1cBJz6-13" value="" style="ellipse;html=1;shape=endState;fillColor=#000000;strokeColor=#ff0000;" vertex="1" parent="1">
          <mxGeometry x="375" y="385" width="30" height="30" as="geometry" />
        </mxCell>
        <mxCell id="ccZ6gFLDCnIG3P1cBJz6-14" value="fail" style="text;html=1;align=center;verticalAlign=middle;resizable=0;points=[];autosize=1;strokeColor=none;fillColor=none;" vertex="1" parent="1">
          <mxGeometry x="400" y="385" width="40" height="30" as="geometry" />
        </mxCell>
        <mxCell id="ccZ6gFLDCnIG3P1cBJz6-15" value="yes" style="text;html=1;align=center;verticalAlign=middle;resizable=0;points=[];autosize=1;strokeColor=none;fillColor=none;" vertex="1" parent="1">
          <mxGeometry x="335" y="370" width="40" height="30" as="geometry" />
        </mxCell>
        <mxCell id="ccZ6gFLDCnIG3P1cBJz6-30" style="edgeStyle=orthogonalEdgeStyle;rounded=0;orthogonalLoop=1;jettySize=auto;html=1;" edge="1" parent="1" source="ccZ6gFLDCnIG3P1cBJz6-31" target="ccZ6gFLDCnIG3P1cBJz6-12">
          <mxGeometry relative="1" as="geometry" />
        </mxCell>
        <mxCell id="ccZ6gFLDCnIG3P1cBJz6-31" value="SetConfig" style="rounded=1;whiteSpace=wrap;html=1;" vertex="1" parent="1">
          <mxGeometry x="105" y="370" width="120" height="60" as="geometry" />
        </mxCell>
        <mxCell id="ccZ6gFLDCnIG3P1cBJz6-32" value="ID" style="rounded=1;whiteSpace=wrap;html=1;" vertex="1" parent="1">
          <mxGeometry x="105" y="460" width="120" height="60" as="geometry" />
        </mxCell>
        <mxCell id="48FFa_vevC7LE3hxK36y-1" value="New" style="rounded=1;whiteSpace=wrap;html=1;" vertex="1" parent="1">
          <mxGeometry x="105" y="550" width="120" height="60" as="geometry" />
        </mxCell>
        <mxCell id="Z3VJq1caZxiKz2fVmagf-1" value="SetScriptReceiver" style="rounded=1;whiteSpace=wrap;html=1;" vertex="1" parent="1">
          <mxGeometry x="105" y="640" width="120" height="60" as="geometry" />
        </mxCell>
        <mxCell id="oyLnVq_SlslrgprhnnTs-5" style="edgeStyle=orthogonalEdgeStyle;rounded=0;orthogonalLoop=1;jettySize=auto;html=1;entryX=0;entryY=0.5;entryDx=0;entryDy=0;" edge="1" parent="1" source="Z3VJq1caZxiKz2fVmagf-4" target="Z3VJq1caZxiKz2fVmagf-6">
          <mxGeometry relative="1" as="geometry" />
        </mxCell>
        <mxCell id="oyLnVq_SlslrgprhnnTs-6" style="edgeStyle=orthogonalEdgeStyle;rounded=0;orthogonalLoop=1;jettySize=auto;html=1;entryX=0;entryY=0.5;entryDx=0;entryDy=0;" edge="1" parent="1" source="Z3VJq1caZxiKz2fVmagf-4" target="oyLnVq_SlslrgprhnnTs-2">
          <mxGeometry relative="1" as="geometry" />
        </mxCell>
        <mxCell id="Z3VJq1caZxiKz2fVmagf-4" value="handleLintFile" style="rounded=1;whiteSpace=wrap;html=1;" vertex="1" parent="1">
          <mxGeometry x="470" y="230" width="120" height="60" as="geometry" />
        </mxCell>
        <mxCell id="oyLnVq_SlslrgprhnnTs-11" style="edgeStyle=orthogonalEdgeStyle;rounded=0;orthogonalLoop=1;jettySize=auto;html=1;entryX=0;entryY=0.5;entryDx=0;entryDy=0;" edge="1" parent="1" source="Z3VJq1caZxiKz2fVmagf-5" target="oyLnVq_SlslrgprhnnTs-9">
          <mxGeometry relative="1" as="geometry" />
        </mxCell>
        <mxCell id="oyLnVq_SlslrgprhnnTs-12" style="edgeStyle=orthogonalEdgeStyle;rounded=0;orthogonalLoop=1;jettySize=auto;html=1;entryX=0;entryY=0.5;entryDx=0;entryDy=0;" edge="1" parent="1" source="Z3VJq1caZxiKz2fVmagf-5" target="oyLnVq_SlslrgprhnnTs-10">
          <mxGeometry relative="1" as="geometry" />
        </mxCell>
        <mxCell id="Z3VJq1caZxiKz2fVmagf-5" value="registerScripts" style="rounded=1;whiteSpace=wrap;html=1;" vertex="1" parent="1">
          <mxGeometry x="470" y="340" width="120" height="60" as="geometry" />
        </mxCell>
        <mxCell id="Z3VJq1caZxiKz2fVmagf-6" value="copyFile" style="rounded=1;whiteSpace=wrap;html=1;" vertex="1" parent="1">
          <mxGeometry x="630" y="230" width="120" height="60" as="geometry" />
        </mxCell>
        <mxCell id="oyLnVq_SlslrgprhnnTs-1" style="edgeStyle=orthogonalEdgeStyle;rounded=0;orthogonalLoop=1;jettySize=auto;html=1;entryX=0;entryY=0.5;entryDx=0;entryDy=0;" edge="1" parent="1" source="oyLnVq_SlslrgprhnnTs-2" target="oyLnVq_SlslrgprhnnTs-3">
          <mxGeometry relative="1" as="geometry" />
        </mxCell>
        <mxCell id="oyLnVq_SlslrgprhnnTs-2" value="renderContent&lt;div&gt;(replaces template contents)&lt;/div&gt;" style="rounded=1;whiteSpace=wrap;html=1;" vertex="1" parent="1">
          <mxGeometry x="630" y="150" width="120" height="60" as="geometry" />
        </mxCell>
        <mxCell id="oyLnVq_SlslrgprhnnTs-3" value="excecuteTemplate&lt;div&gt;(text/template)&lt;/div&gt;" style="rounded=1;whiteSpace=wrap;html=1;" vertex="1" parent="1">
          <mxGeometry x="780" y="150" width="120" height="60" as="geometry" />
        </mxCell>
        <mxCell id="oyLnVq_SlslrgprhnnTs-9" value="Registrar.RegisterLines" style="rounded=1;whiteSpace=wrap;html=1;" vertex="1" parent="1">
          <mxGeometry x="630" y="340" width="130" height="60" as="geometry" />
        </mxCell>
        <mxCell id="oyLnVq_SlslrgprhnnTs-10" value="Registrar.RegisterFile" style="rounded=1;whiteSpace=wrap;html=1;" vertex="1" parent="1">
          <mxGeometry x="630" y="420" width="130" height="60" as="geometry" />
        </mxCell>
      </root>
    </mxGraphModel>
  </diagram>
  <diagram id="Mtjx9W37Fbj2W_d1k61f" name="base_local_service">
    <mxGraphModel dx="1426" dy="803" grid="1" gridSize="10" guides="1" tooltips="1" connect="1" arrows="1" fold="1" page="1" pageScale="1" pageWidth="827" pageHeight="1169" math="0" shadow="0">
      <root>
        <mxCell id="0" />
        <mxCell id="1" parent="0" />
        <mxCell id="4UkuldJ0okeGi0RZS8He-1" style="edgeStyle=orthogonalEdgeStyle;rounded=0;orthogonalLoop=1;jettySize=auto;html=1;entryX=0;entryY=0.5;entryDx=0;entryDy=0;" edge="1" parent="1" source="4UkuldJ0okeGi0RZS8He-3" target="4UkuldJ0okeGi0RZS8He-9">
          <mxGeometry relative="1" as="geometry" />
        </mxCell>
        <mxCell id="4UkuldJ0okeGi0RZS8He-2" style="edgeStyle=orthogonalEdgeStyle;rounded=0;orthogonalLoop=1;jettySize=auto;html=1;entryX=0;entryY=0.5;entryDx=0;entryDy=0;" edge="1" parent="1" source="4UkuldJ0okeGi0RZS8He-3" target="4UkuldJ0okeGi0RZS8He-10">
          <mxGeometry relative="1" as="geometry" />
        </mxCell>
        <mxCell id="4UkuldJ0okeGi0RZS8He-3" value="Run" style="rounded=1;whiteSpace=wrap;html=1;" vertex="1" parent="1">
          <mxGeometry x="105" y="110" width="120" height="60" as="geometry" />
        </mxCell>
        <mxCell id="4UkuldJ0okeGi0RZS8He-4" style="edgeStyle=orthogonalEdgeStyle;rounded=0;orthogonalLoop=1;jettySize=auto;html=1;fillColor=#f8cecc;strokeColor=#b85450;exitX=0.5;exitY=1;exitDx=0;exitDy=0;entryX=0;entryY=0.5;entryDx=0;entryDy=0;" edge="1" parent="1" source="4UkuldJ0okeGi0RZS8He-7" target="4UkuldJ0okeGi0RZS8He-31">
          <mxGeometry relative="1" as="geometry" />
        </mxCell>
        <mxCell id="4UkuldJ0okeGi0RZS8He-5" style="edgeStyle=orthogonalEdgeStyle;rounded=0;orthogonalLoop=1;jettySize=auto;html=1;entryX=0;entryY=0.5;entryDx=0;entryDy=0;exitX=0.5;exitY=1;exitDx=0;exitDy=0;fillColor=#f8cecc;strokeColor=#b85450;" edge="1" parent="1" source="4UkuldJ0okeGi0RZS8He-7" target="4UkuldJ0okeGi0RZS8He-3">
          <mxGeometry relative="1" as="geometry" />
        </mxCell>
        <mxCell id="4UkuldJ0okeGi0RZS8He-6" style="edgeStyle=orthogonalEdgeStyle;rounded=0;orthogonalLoop=1;jettySize=auto;html=1;entryX=0;entryY=0.5;entryDx=0;entryDy=0;exitX=0.5;exitY=1;exitDx=0;exitDy=0;fillColor=#f8cecc;strokeColor=#b85450;" edge="1" parent="1" source="4UkuldJ0okeGi0RZS8He-7" target="4UkuldJ0okeGi0RZS8He-32">
          <mxGeometry relative="1" as="geometry" />
        </mxCell>
        <mxCell id="67zH02bUl9BY9lJ3_YUY-2" style="edgeStyle=orthogonalEdgeStyle;rounded=0;orthogonalLoop=1;jettySize=auto;html=1;entryX=0;entryY=0.5;entryDx=0;entryDy=0;exitX=0.5;exitY=1;exitDx=0;exitDy=0;fillColor=#f8cecc;strokeColor=#b85450;" edge="1" parent="1" source="4UkuldJ0okeGi0RZS8He-7" target="67zH02bUl9BY9lJ3_YUY-1">
          <mxGeometry relative="1" as="geometry" />
        </mxCell>
        <mxCell id="4UkuldJ0okeGi0RZS8He-7" value="" style="ellipse;html=1;shape=startState;fillColor=#000000;strokeColor=#ff0000;" vertex="1" parent="1">
          <mxGeometry x="45" y="50" width="30" height="30" as="geometry" />
        </mxCell>
        <mxCell id="4UkuldJ0okeGi0RZS8He-8" value="goboot" style="text;html=1;align=center;verticalAlign=middle;resizable=0;points=[];autosize=1;strokeColor=none;fillColor=none;" vertex="1" parent="1">
          <mxGeometry x="30" y="20" width="60" height="30" as="geometry" />
        </mxCell>
        <mxCell id="4UkuldJ0okeGi0RZS8He-9" value="createRootDir" style="rounded=1;whiteSpace=wrap;html=1;" vertex="1" parent="1">
          <mxGeometry x="270" y="110" width="120" height="60" as="geometry" />
        </mxCell>
        <mxCell id="xh-RjQbCYFA4788_TT_4-5" style="edgeStyle=orthogonalEdgeStyle;rounded=0;orthogonalLoop=1;jettySize=auto;html=1;entryX=0;entryY=0.5;entryDx=0;entryDy=0;" edge="1" parent="1" source="4UkuldJ0okeGi0RZS8He-10" target="xh-RjQbCYFA4788_TT_4-2">
          <mxGeometry relative="1" as="geometry" />
        </mxCell>
        <mxCell id="xh-RjQbCYFA4788_TT_4-6" style="edgeStyle=orthogonalEdgeStyle;rounded=0;orthogonalLoop=1;jettySize=auto;html=1;" edge="1" parent="1" source="4UkuldJ0okeGi0RZS8He-10" target="G7GUM0ot8Xrcxxd-9uDm-9">
          <mxGeometry relative="1" as="geometry" />
        </mxCell>
        <mxCell id="4UkuldJ0okeGi0RZS8He-10" value="copyFiles" style="rounded=1;whiteSpace=wrap;html=1;" vertex="1" parent="1">
          <mxGeometry x="270" y="240" width="120" height="60" as="geometry" />
        </mxCell>
        <mxCell id="4UkuldJ0okeGi0RZS8He-11" style="edgeStyle=orthogonalEdgeStyle;rounded=0;orthogonalLoop=1;jettySize=auto;html=1;entryX=0;entryY=0.5;entryDx=0;entryDy=0;" edge="1" parent="1" source="4UkuldJ0okeGi0RZS8He-12" target="4UkuldJ0okeGi0RZS8He-13">
          <mxGeometry relative="1" as="geometry" />
        </mxCell>
        <mxCell id="4UkuldJ0okeGi0RZS8He-12" value="wrong&amp;nbsp;&lt;div&gt;conf type&lt;/div&gt;" style="rhombus;whiteSpace=wrap;html=1;" vertex="1" parent="1">
          <mxGeometry x="264" y="370" width="80" height="80" as="geometry" />
        </mxCell>
        <mxCell id="4UkuldJ0okeGi0RZS8He-13" value="" style="ellipse;html=1;shape=endState;fillColor=#000000;strokeColor=#ff0000;" vertex="1" parent="1">
          <mxGeometry x="375" y="395" width="30" height="30" as="geometry" />
        </mxCell>
        <mxCell id="4UkuldJ0okeGi0RZS8He-14" value="fail" style="text;html=1;align=center;verticalAlign=middle;resizable=0;points=[];autosize=1;strokeColor=none;fillColor=none;" vertex="1" parent="1">
          <mxGeometry x="400" y="395" width="40" height="30" as="geometry" />
        </mxCell>
        <mxCell id="4UkuldJ0okeGi0RZS8He-15" value="yes" style="text;html=1;align=center;verticalAlign=middle;resizable=0;points=[];autosize=1;strokeColor=none;fillColor=none;" vertex="1" parent="1">
          <mxGeometry x="335" y="380" width="40" height="30" as="geometry" />
        </mxCell>
        <mxCell id="4UkuldJ0okeGi0RZS8He-30" style="edgeStyle=orthogonalEdgeStyle;rounded=0;orthogonalLoop=1;jettySize=auto;html=1;" edge="1" parent="1" source="4UkuldJ0okeGi0RZS8He-31" target="4UkuldJ0okeGi0RZS8He-12">
          <mxGeometry relative="1" as="geometry" />
        </mxCell>
        <mxCell id="4UkuldJ0okeGi0RZS8He-31" value="SetConfig" style="rounded=1;whiteSpace=wrap;html=1;" vertex="1" parent="1">
          <mxGeometry x="105" y="380" width="120" height="60" as="geometry" />
        </mxCell>
        <mxCell id="4UkuldJ0okeGi0RZS8He-32" value="ID" style="rounded=1;whiteSpace=wrap;html=1;" vertex="1" parent="1">
          <mxGeometry x="105" y="470" width="120" height="60" as="geometry" />
        </mxCell>
        <mxCell id="67zH02bUl9BY9lJ3_YUY-1" value="New" style="rounded=1;whiteSpace=wrap;html=1;" vertex="1" parent="1">
          <mxGeometry x="105" y="560" width="120" height="60" as="geometry" />
        </mxCell>
        <mxCell id="G7GUM0ot8Xrcxxd-9uDm-3" value="RegisterLines" style="rounded=1;whiteSpace=wrap;html=1;" vertex="1" parent="1">
          <mxGeometry x="100" y="770" width="130" height="60" as="geometry" />
        </mxCell>
        <mxCell id="G7GUM0ot8Xrcxxd-9uDm-4" value="RegisterFile" style="rounded=1;whiteSpace=wrap;html=1;" vertex="1" parent="1">
          <mxGeometry x="100" y="850" width="130" height="60" as="geometry" />
        </mxCell>
        <mxCell id="G7GUM0ot8Xrcxxd-9uDm-7" style="edgeStyle=orthogonalEdgeStyle;rounded=0;orthogonalLoop=1;jettySize=auto;html=1;entryX=0;entryY=0.5;entryDx=0;entryDy=0;exitX=0.5;exitY=1;exitDx=0;exitDy=0;fillColor=#f8cecc;strokeColor=#b85450;" edge="1" parent="1" source="G7GUM0ot8Xrcxxd-9uDm-5" target="G7GUM0ot8Xrcxxd-9uDm-3">
          <mxGeometry relative="1" as="geometry" />
        </mxCell>
        <mxCell id="G7GUM0ot8Xrcxxd-9uDm-5" value="" style="ellipse;html=1;shape=startState;fillColor=#000000;strokeColor=#ff0000;" vertex="1" parent="1">
          <mxGeometry x="50" y="700" width="30" height="30" as="geometry" />
        </mxCell>
        <mxCell id="G7GUM0ot8Xrcxxd-9uDm-8" style="edgeStyle=orthogonalEdgeStyle;rounded=0;orthogonalLoop=1;jettySize=auto;html=1;entryX=0;entryY=0.5;entryDx=0;entryDy=0;exitX=0.5;exitY=1;exitDx=0;exitDy=0;fillColor=#f8cecc;strokeColor=#b85450;" edge="1" parent="1" source="G7GUM0ot8Xrcxxd-9uDm-5" target="G7GUM0ot8Xrcxxd-9uDm-4">
          <mxGeometry relative="1" as="geometry" />
        </mxCell>
        <mxCell id="G7GUM0ot8Xrcxxd-9uDm-6" value="service" style="text;html=1;align=center;verticalAlign=middle;resizable=0;points=[];autosize=1;strokeColor=none;fillColor=none;" vertex="1" parent="1">
          <mxGeometry x="35" y="680" width="60" height="30" as="geometry" />
        </mxCell>
        <mxCell id="igy90D9iCX31El83Dt72-4" style="edgeStyle=orthogonalEdgeStyle;rounded=0;orthogonalLoop=1;jettySize=auto;html=1;" edge="1" parent="1" source="G7GUM0ot8Xrcxxd-9uDm-9" target="igy90D9iCX31El83Dt72-2">
          <mxGeometry relative="1" as="geometry" />
        </mxCell>
        <mxCell id="G7GUM0ot8Xrcxxd-9uDm-9" value="copyFile" style="rounded=1;whiteSpace=wrap;html=1;" vertex="1" parent="1">
          <mxGeometry x="620" y="240" width="120" height="60" as="geometry" />
        </mxCell>
        <mxCell id="xh-RjQbCYFA4788_TT_4-1" value="utils.EnsureDir" style="rounded=1;whiteSpace=wrap;html=1;" vertex="1" parent="1">
          <mxGeometry x="620" y="150" width="120" height="60" as="geometry" />
        </mxCell>
        <mxCell id="xh-RjQbCYFA4788_TT_4-3" style="edgeStyle=orthogonalEdgeStyle;rounded=0;orthogonalLoop=1;jettySize=auto;html=1;entryX=0;entryY=0.5;entryDx=0;entryDy=0;" edge="1" parent="1" source="xh-RjQbCYFA4788_TT_4-2" target="xh-RjQbCYFA4788_TT_4-1">
          <mxGeometry relative="1" as="geometry" />
        </mxCell>
        <mxCell id="xh-RjQbCYFA4788_TT_4-2" value="isScript&lt;div&gt;File&lt;/div&gt;" style="rhombus;whiteSpace=wrap;html=1;" vertex="1" parent="1">
          <mxGeometry x="500" y="140" width="80" height="80" as="geometry" />
        </mxCell>
        <mxCell id="xh-RjQbCYFA4788_TT_4-4" value="yes" style="text;html=1;align=center;verticalAlign=middle;resizable=0;points=[];autosize=1;strokeColor=none;fillColor=none;" vertex="1" parent="1">
          <mxGeometry x="570" y="148" width="40" height="30" as="geometry" />
        </mxCell>
        <mxCell id="igy90D9iCX31El83Dt72-1" style="edgeStyle=orthogonalEdgeStyle;rounded=0;orthogonalLoop=1;jettySize=auto;html=1;entryX=0;entryY=0.5;entryDx=0;entryDy=0;" edge="1" parent="1" source="igy90D9iCX31El83Dt72-2" target="igy90D9iCX31El83Dt72-3">
          <mxGeometry relative="1" as="geometry" />
        </mxCell>
        <mxCell id="igy90D9iCX31El83Dt72-2" value="renderContent&lt;div&gt;(replaces template contents)&lt;/div&gt;" style="rounded=1;whiteSpace=wrap;html=1;" vertex="1" parent="1">
          <mxGeometry x="780" y="240" width="120" height="60" as="geometry" />
        </mxCell>
        <mxCell id="igy90D9iCX31El83Dt72-3" value="excecuteTemplate&lt;div&gt;(text/template)&lt;/div&gt;" style="rounded=1;whiteSpace=wrap;html=1;" vertex="1" parent="1">
          <mxGeometry x="930" y="240" width="120" height="60" as="geometry" />
        </mxCell>
      </root>
    </mxGraphModel>
  </diagram>
</mxfile>
